<?xml version="1.0" encoding="utf-8"?>
<!-- Generator: Adobe Illustrator 19.1.0, SVG Export Plug-In . SVG Version: 6.00 Build 0)  -->
<svg version="1.1" id="Layer_1" xmlns="http://www.w3.org/2000/svg" xmlns:xlink="http://www.w3.org/1999/xlink" x="0px" y="0px"
	 viewBox="0 0 121.5 121.5" style="enable-background:new 0 0 121.5 121.5;" xml:space="preserve">
<style type="text/css">
	.st0{fill:#FFFFFF;}
	.st1{fill:none;stroke:#FFFFFF;stroke-width:2.4405;stroke-miterlimit:10;}
</style>
<g>
	<path d="M117.1,68.3c0.3-2.5,0.5-5,0.5-7.5c0-2.4-0.2-4.9-0.5-7.4l0-0.1l-9.7,1.2c-0.5-4.2-1.6-8.1-3.2-11.9l9-3.7
		c-1.9-4.6-4.4-8.9-7.4-12.9l-7.7,5.9c-2.5-3.3-5.4-6.2-8.7-8.7l5.9-7.7c-3.9-3-8.3-5.5-12.8-7.4l-3.7,9c-3.8-1.6-7.7-2.6-11.9-3.2
		l1.3-9.7c-2.4-0.3-4.9-0.5-7.4-0.5c-2.4,0-4.9,0.2-7.4,0.5l-0.1,0l1.2,9.7c-4.2,0.5-8.1,1.6-11.9,3.2l-3.7-9
		c-4.6,1.9-8.9,4.4-12.9,7.4l5.9,7.7c-3.3,2.5-6.2,5.4-8.7,8.7l-7.7-5.9c-3,3.9-5.5,8.2-7.4,12.8l9,3.8c-1.6,3.8-2.6,7.7-3.2,11.9
		l-9.7-1.3c-0.3,2.4-0.5,4.9-0.5,7.4c0,2.4,0.2,4.9,0.5,7.4l0,0l9.7-1.2c0.5,4.2,1.6,8.1,3.2,11.9l-9,3.7c1.9,4.6,4.4,8.9,7.4,12.9
		l7.7-5.9c2.5,3.3,5.4,6.2,8.7,8.7l-5.9,7.7c3.9,3,8.2,5.5,12.8,7.4l3.8-9c3.8,1.6,7.7,2.6,11.9,3.2l-1.3,9.7c2.5,0.3,5,0.5,7.4,0.5
		c2.4,0,4.9-0.2,7.4-0.5l0,0l-1.3-9.7l0,0c4.2-0.5,8.1-1.6,11.9-3.2l3.7,9c4.6-1.9,8.9-4.4,12.9-7.4l-5.9-7.7
		c3.3-2.5,6.2-5.4,8.7-8.7l7.7,6c3-3.9,5.5-8.2,7.4-12.8l-9-3.8c1.6-3.8,2.7-7.7,3.2-11.9L117.1,68.3z M65.5,97.6
		c-20.3,2.6-39-11.7-41.6-32.1c-2.6-20.3,11.7-39,32.1-41.6c20.3-2.6,39,11.7,41.6,32.1C100.2,76.3,85.9,94.9,65.5,97.6z"/>
	<polygon points="59.1,39.5 37.4,39.5 37.4,49.4 55.8,49.4 55.8,90.6 65.7,90.6 65.7,71.9 76,71.9 76,62 68.2,62 67.6,62 65.7,62 
		65.7,49.4 84.1,49.4 84.1,39.5 60.9,39.5 	"/>
</g>
</svg>
